<?xml version="1.0" standalone="no"?>
<!DOCTYPE svg PUBLIC "-//W3C//DTD SVG 1.1//EN" "http://www.w3.org/Graphics/SVG/1.1/DTD/svg11.dtd" >
<svg xmlns="http://www.w3.org/2000/svg">
<metadata></metadata>
<defs>
<font id="alright_sansbold" horiz-adv-x="1257" >
<font-face units-per-em="2048" ascent="1556" descent="-492" />
<missing-glyph horiz-adv-x="489" />
<glyph unicode="&#xfb01;" horiz-adv-x="1355" d="M33 872v209h174v47q0 223 124 329t374 106q268 0 491 -129l-109 -195q-184 98 -356 98q-121 0 -172 -51t-51 -164v-41h276v-209h-276v-872h-301v872h-174zM928 0v1083h301v-1083h-301z" />
<glyph unicode="&#xfb02;" horiz-adv-x="1376" d="M33 872v209h174v47q0 217 136 327t390 110q516 0 516 -445v-1120h-301v1124q0 109 -51 161t-168 52t-169 -52t-52 -161v-43h280v-209h-280v-872h-301v872h-174z" />
<glyph unicode="&#xfb03;" horiz-adv-x="2068" d="M33 872v209h174v45q0 422 461 422q201 0 370 -96q123 111 379 111q266 0 490 -129l-109 -195q-180 98 -354 98q-121 0 -172 -51t-51 -164v-41h274v-209h-274v-872h-301v872h-412v-872h-301v872h-174zM508 1081h412v47q0 88 16 148q-102 53 -234 53q-195 0 -194 -196v-52z M1638 0v1083h301v-1083h-301z" />
<glyph unicode="&#xfb04;" horiz-adv-x="2088" d="M33 872v209h174v45q0 422 461 422q205 0 379 -100q135 117 397 117q516 0 516 -445v-1120h-301v1124q0 109 -51.5 161t-168 52t-167.5 -52t-51 -161v-43h278v-209h-278v-872h-301v872h-412v-872h-301v872h-174zM508 1081h412v47q0 78 18 146q-102 55 -236 55 q-194 1 -194 -196v-52z" />
<glyph horiz-adv-x="2048" />
<glyph horiz-adv-x="2048" />
<glyph unicode="&#xd;" horiz-adv-x="681" />
<glyph unicode=" "  horiz-adv-x="489" />
<glyph unicode="&#x09;" horiz-adv-x="489" />
<glyph unicode="&#xa0;" horiz-adv-x="489" />
<glyph unicode="!" horiz-adv-x="569" d="M131 0v268h307v-268h-307zM131 1157v277h305v-277l-76 -713h-153z" />
<glyph unicode="&#x22;" horiz-adv-x="929" d="M88 825v609h311l-141 -609h-170zM537 825v609h311l-141 -609h-170z" />
<glyph unicode="#" horiz-adv-x="1390" d="M59 252v205h258l39 241h-231v207h266l41 250h234l-43 -250h247l41 250h230l-41 -250h229v-207h-262l-39 -241h238v-205h-271l-41 -252h-233l41 252h-248l-41 -252h-229l41 252h-226zM549 457h248l39 241h-248z" />
<glyph unicode="$" horiz-adv-x="1167" d="M84 109l133 208q162 -98 328 -110v266q-59 14 -89 21.5t-85.5 25t-85 33.5t-70.5 44t-61.5 58.5t-36 74.5t-15.5 95q0 145 113 241.5t313 111.5v176h142v-178q197 -12 368 -95l-112 -211q-137 63 -275 80v-256q76 -18 122 -30.5t112.5 -42t104.5 -64.5t65.5 -93 t27.5 -134q0 -143 -105.5 -239.5t-307.5 -113.5v-249h-142v247q-251 17 -444 134zM383 842q0 -80 162 -123v233q-162 -12 -162 -110zM651 207q158 17 158 115q0 78 -158 124v-239z" />
<glyph unicode="%" horiz-adv-x="1658" d="M84 864q0 135 96 223.5t239.5 88.5t239 -88.5t95.5 -223.5q0 -141 -94.5 -229t-240 -88t-240.5 88t-95 229zM274 864q0 -72 40 -117t106 -45q68 0 106.5 45.5t38.5 116.5q0 68 -40 111t-105 43q-63 0 -104.5 -44t-41.5 -110zM289 0l887 1155h192l-887 -1155h-192z M905 299q0 135 96.5 223t239.5 88t238.5 -88t95.5 -223q0 -141 -94.5 -229t-239.5 -88q-147 0 -241.5 88t-94.5 229zM1094 299q0 -72 40 -117t107 -45q66 0 105.5 45t39.5 117q0 68 -40.5 112t-104.5 44q-66 0 -106.5 -44t-40.5 -112z" />
<glyph unicode="&#x26;" horiz-adv-x="1536" d="M74 406q0 256 280 415q-96 131 -96 271q0 156 121 261t305 105q240 0 418 -192l-187 -160q-115 119 -227 119q-68 0 -107.5 -40t-39.5 -98q0 -96 123 -223q170 -168 395 -346q51 121 51 260h264q0 -223 -108 -416l243 -172l-161 -204q-178 123 -246 174 q-211 -184 -504 -185q-238 0 -381 126.5t-143 304.5zM350 432q0 -96 73 -155.5t195 -59.5q160 0 283 94q-236 186 -407 355q-143 -88 -144 -234z" />
<glyph unicode="'" horiz-adv-x="477" d="M88 825v609h311l-141 -609h-170z" />
<glyph unicode="(" horiz-adv-x="841" d="M109 567q0 551 348 979h323q-383 -420 -383 -979q0 -557 383 -977h-321q-350 426 -350 977z" />
<glyph unicode=")" horiz-adv-x="841" d="M61 -410q383 420 383 977q0 559 -383 979h324q348 -428 348 -979t-350 -977h-322z" />
<glyph unicode="*" horiz-adv-x="866" d="M86 1034l4 205l242 -35l4 4l-96 222l178 49l49 -234l6 -2l182 148l113 -160l-211 -98v-9l203 -125l-123 -149l-172 170l-6 -2l-68 -240l-172 64l111 221l-4 2z" />
<glyph unicode="+" horiz-adv-x="1259" d="M78 428v248h416v426h274v-426h414v-248h-414v-428h-274v428h-416z" />
<glyph unicode="," horiz-adv-x="503" d="M82 -193q150 55 149 193h-135v313h312v-239q0 -158 -63.5 -247t-201.5 -134z" />
<glyph unicode="-" horiz-adv-x="788" d="M76 426v252h637v-252h-637z" />
<glyph unicode="." horiz-adv-x="501" d="M96 0v313h312v-313h-312z" />
<glyph unicode="/" horiz-adv-x="1138" d="M-25 -410l902 1956h286l-901 -1956h-287z" />
<glyph unicode="0" horiz-adv-x="1392" d="M94 580q0 270 174 435t428 165t428 -165t174 -435q0 -274 -173 -439.5t-429 -165.5t-429 165.5t-173 439.5zM408 580q0 -158 78.5 -256.5t209.5 -98.5q129 0 209 98.5t80 256.5q0 156 -80 253t-209 97t-208.5 -97t-79.5 -253z" />
<glyph unicode="1" horiz-adv-x="817" d="M23 1008l401 161h223v-1169h-311v868l-215 -80z" />
<glyph unicode="2" d="M113 997q252 182 546 183q240 0 374 -99.5t134 -263.5q0 -92 -47 -163.5t-119.5 -114.5t-159.5 -83t-165 -68t-140.5 -66.5t-80.5 -81.5h694v-240h-1024l-2 55q-4 117 34 210t102.5 151.5t144 103.5t159.5 77t146.5 60.5t108.5 65.5t42 82q0 59 -53 97t-150 38 q-203 0 -403 -149z" />
<glyph unicode="3" d="M74 -184l112 221q195 -100 375 -100q150 0 240 59t90 160q0 186 -287 186h-209v227h199q250 0 250 191q0 78 -66.5 129t-185.5 51q-168 0 -352 -129l-142 203q256 168 518 168q242 0 389.5 -107.5t147.5 -283.5q0 -209 -207 -310q256 -104 256 -342q0 -211 -182 -327.5 t-451 -116.5q-249 0 -495 121z" />
<glyph unicode="4" horiz-adv-x="1361" d="M76 227l743 928h299v-922h185v-231h-185v-281h-295v281h-651zM371 233h452v592z" />
<glyph unicode="5" horiz-adv-x="1232" d="M76 -182l119 229q172 -100 366 -100q131 0 212 66.5t81 176.5q0 98 -67.5 160t-178.5 62q-113 0 -258 -58l-178 107l31 694h870v-229h-594l-14 -334q119 49 254 49q184 0 314 -120t130 -322q0 -233 -177 -368.5t-433 -135.5q-248 0 -477 123z" />
<glyph unicode="6" horiz-adv-x="1308" d="M94 678q0 201 56.5 355.5t151.5 244.5t213 135t251 45q203 0 397 -102l-119 -207q-139 70 -280 70q-152 0 -247 -106.5t-109 -303.5q152 123 354 123q207 0 333 -122t126 -339q0 -207 -151.5 -351.5t-399.5 -144.5q-287 0 -431.5 196t-144.5 507zM410 596 q14 -385 268 -385q106 0 173 73.5t67 184.5q0 115 -58.5 182.5t-165.5 67.5q-157 0 -284 -123z" />
<glyph unicode="7" horiz-adv-x="1181" d="M78 905v250h1028v-219l-539 -1215h-327l548 1184h-710z" />
<glyph unicode="8" horiz-adv-x="1384" d="M94 383q0 127 86 222t221 143q-106 41 -177.5 124.5t-71.5 188.5q0 184 151.5 290.5t390.5 106.5q238 0 388.5 -106.5t150.5 -290.5q0 -104 -71.5 -188.5t-178.5 -124.5q135 -47 222 -142.5t87 -222.5q0 -193 -165.5 -300.5t-432.5 -107.5q-268 0 -434 107.5t-166 300.5z M401 397q0 -90 82 -144t211 -54q127 0 208 54t81 144t-82 152.5t-207 79.5q-127 -16 -210 -79t-83 -153zM461 1059q0 -84 62 -139.5t171 -65.5q106 10 168 65.5t62 139.5q0 78 -65.5 127t-164.5 49q-102 0 -167.5 -49t-65.5 -127z" />
<glyph unicode="9" horiz-adv-x="1310" d="M84 682q0 209 150.5 352.5t398.5 143.5q291 0 437.5 -197t146.5 -506q0 -201 -55.5 -355.5t-152 -245.5t-213 -136t-249.5 -45q-215 0 -414 119l129 204q123 -82 287 -82q152 0 245 105.5t107 302.5q-156 -123 -346 -123q-211 0 -341 124t-130 339zM387 684 q0 -111 63.5 -179.5t172.5 -68.5q158 0 276 119q-6 182 -74.5 284.5t-197.5 102.5q-109 0 -174.5 -73.5t-65.5 -184.5z" />
<glyph unicode=":" horiz-adv-x="501" d="M96 0v313h312v-313h-312zM96 788v314h312v-314h-312z" />
<glyph unicode=";" horiz-adv-x="503" d="M82 -193q150 55 149 193h-135v313h312v-239q0 -158 -63.5 -247t-201.5 -134zM96 788v314h312v-314h-312z" />
<glyph unicode="&#x3c;" horiz-adv-x="1232" d="M74 420v266l1056 416v-301l-702 -250l702 -254v-297z" />
<glyph unicode="=" horiz-adv-x="1259" d="M78 174v248h1104v-248h-1104zM78 680v248h1104v-248h-1104z" />
<glyph unicode="&#x3e;" horiz-adv-x="1232" d="M102 0v297l703 254l-703 250v301l1057 -416v-266z" />
<glyph unicode="?" horiz-adv-x="1148" d="M70 1239q213 219 495 219q223 0 358.5 -102.5t135.5 -280.5q0 -86 -32 -154.5t-79 -109.5t-101 -82t-102.5 -71.5t-81 -75.5t-34.5 -99l-4 -39h-224q-8 37 -8 82q0 94 38 163t92.5 109t108.5 73.5t92 78.5t38 105q0 72 -57.5 115.5t-145.5 43.5q-164 0 -311 -141zM360 0 v268h308v-268h-308z" />
<glyph unicode="@" horiz-adv-x="1689" d="M125 581.5q0 307.5 217 525.5t524 218q299 0 500 -193.5t201 -480.5q0 -225 -129 -353t-285 -128q-182 0 -231 137q-94 -109 -222 -108q-102 0 -172.5 75.5t-70.5 204.5q0 115 43 224.5t135 188.5t215 79q119 0 184 -97l37 76h178l-137 -485q-23 -84 -1 -126t83 -42 q96 0 174 96t78 258q0 236 -166 393.5t-412 157.5q-256 0 -438 -182t-182 -438t182 -437.5t438 -181.5q188 0 346 107l70 -101q-190 -129 -418 -129q-307 0 -524 217t-217 524.5zM666 492q0 -133 100 -134q51 0 94 38t62 110l69 250q-41 49 -112 49q-92 0 -152.5 -101 t-60.5 -212z" />
<glyph unicode="A" horiz-adv-x="1460" d="M35 0l518 1434h352l518 -1434h-331l-91 268h-544l-88 -268h-334zM535 508h387l-193 582h-4z" />
<glyph unicode="B" horiz-adv-x="1386" d="M139 0v1434h602q250 0 378 -105.5t128 -279.5q0 -213 -215 -306q268 -88 268 -333q0 -195 -142 -302.5t-388 -107.5h-631zM446 248h318q106 0 166.5 48t60.5 140q0 88 -61.5 135t-165.5 47h-318v-370zM446 836h271q106 0 162.5 48t56.5 130q0 78 -56.5 125t-162.5 47 h-271v-350z" />
<glyph unicode="C" horiz-adv-x="1443" d="M84 725q0 319 210 526t537 207q291 0 521 -182l-168 -213q-168 133 -346 133q-199 0 -320 -129t-121 -342q0 -221 119 -354t322 -133q201 0 354 149l184 -197q-229 -215 -555 -215q-328 0 -532.5 210t-204.5 540z" />
<glyph unicode="D" horiz-adv-x="1480" d="M139 0v1434h471q381 0 585 -186.5t204 -524.5q0 -348 -199 -535.5t-590 -187.5h-471zM449 252h184q221 0 336.5 124t115.5 345q0 213 -118.5 337t-333.5 124h-184v-930z" />
<glyph unicode="E" horiz-adv-x="1298" d="M139 0v1434h1045v-271h-735v-315h655v-240h-655v-338h743v-270h-1053z" />
<glyph unicode="F" horiz-adv-x="1269" d="M139 0v1434h1028v-271h-716v-336h618v-254h-618v-573h-312z" />
<glyph unicode="G" horiz-adv-x="1499" d="M84 725q0 317 206 525t541 208q289 0 529 -176l-162 -209q-174 123 -358 123q-199 0 -320 -132t-121 -339q0 -225 117 -356t324 -131q145 0 250 61v287h-324v211h606v-656q-227 -166 -543 -166q-338 0 -541.5 208t-203.5 542z" />
<glyph unicode="H" horiz-adv-x="1458" d="M139 0v1434h312v-574h559v574h309v-1434h-309v594h-559v-594h-312z" />
<glyph unicode="I" horiz-adv-x="587" d="M139 0v1434h312v-1434h-312z" />
<glyph unicode="J" horiz-adv-x="1171" d="M66 258l233 152q90 -162 233 -162q94 0 145.5 60.5t51.5 170.5v955h309v-961q0 -242 -130 -370t-359 -128q-315 0 -483 283z" />
<glyph unicode="K" horiz-adv-x="1417" d="M139 0v1434h312v-670l544 670h342l-448 -535l493 -899h-350l-342 662l-239 -287v-375h-312z" />
<glyph unicode="L" horiz-adv-x="1232" d="M139 0v1434h312v-1166h712v-268h-1024z" />
<glyph unicode="M" horiz-adv-x="1763" d="M139 0v1434h312l432 -613l434 613h307v-1434h-295v991l-448 -618l-447 618v-991h-295z" />
<glyph unicode="N" horiz-adv-x="1507" d="M139 0v1434h295l639 -945v945h293v-1434h-293l-639 940v-940h-295z" />
<glyph unicode="O" horiz-adv-x="1654" d="M84 721q0 324 209 530.5t534 206.5q328 0 536 -207t208 -530q0 -326 -209 -536t-534.5 -210t-534.5 210t-209 536zM399 721q0 -217 120 -350t308 -133q190 0 310 133t120 350q0 215 -119.5 346t-310 131t-309.5 -132t-119 -345z" />
<glyph unicode="P" horiz-adv-x="1386" d="M139 0v1434h600q147 0 259 -38t173.5 -104.5t91 -144.5t29.5 -168q0 -193 -134 -326t-417 -133h-290v-520h-312zM451 762h286q121 0 183.5 58.5t62.5 154.5t-62.5 153.5t-181.5 57.5h-288v-424z" />
<glyph unicode="Q" horiz-adv-x="1665" d="M84 721q0 324 209 530.5t534 206.5q328 0 536 -207t208 -530q0 -272 -150 -467l162 -137l-156 -166l-167 149q-186 -125 -433 -125q-326 0 -534.5 210t-208.5 536zM399 721q0 -217 120 -350t308 -133q125 0 222 59l-226 192l144 160l225 -203q66 119 65 275 q0 215 -119.5 346t-310 131t-309.5 -132t-119 -345z" />
<glyph unicode="R" horiz-adv-x="1433" d="M139 0v1434h631q285 0 418 -130t133 -325q0 -131 -66.5 -235.5t-195.5 -159.5l274 -584h-334l-221 535h-327v-535h-312zM451 762h315q119 0 181.5 59.5t62.5 153.5q0 96 -62.5 153.5t-179.5 57.5h-317v-424z" />
<glyph unicode="S" horiz-adv-x="1292" d="M78 133l147 242q217 -129 422 -129q113 0 173.5 42t60.5 113q0 53 -43 90t-111 58.5t-150.5 41t-165.5 50.5t-150.5 75t-111 125t-43.5 191q0 182 142.5 304t384.5 122q262 0 516 -121l-115 -243q-188 94 -387 94q-100 0 -159.5 -43t-59.5 -109q0 -53 43 -89t110.5 -56.5 t150.5 -38.5t166 -49t150.5 -76t110.5 -127t43 -194q0 -190 -143.5 -310.5t-409.5 -120.5q-154 0 -308 45t-263 113z" />
<glyph unicode="T" horiz-adv-x="1361" d="M53 1159v275h1258v-275h-475v-1159h-310v1159h-473z" />
<glyph unicode="U" horiz-adv-x="1476" d="M133 545v889h313v-889q0 -143 80 -224t213 -81q131 0 212 80.5t81 224.5v889h311v-889q0 -279 -164.5 -424.5t-439 -145.5t-440.5 145.5t-166 424.5z" />
<glyph unicode="V" horiz-adv-x="1449" d="M35 1434h336l352 -1074h4l354 1074h336l-518 -1434h-350z" />
<glyph unicode="W" horiz-adv-x="2193" d="M45 1434h324l299 -992h4l284 992h283l285 -992h4l299 992h323l-452 -1434h-318l-280 973h-4l-283 -973h-317z" />
<glyph unicode="X" horiz-adv-x="1476" d="M51 0l490 731l-473 703h374l301 -461l301 461h367l-475 -703l491 -731h-372l-320 489l-317 -489h-367z" />
<glyph unicode="Y" horiz-adv-x="1439" d="M27 1434h358l334 -553h4l336 553h354l-536 -859v-575h-314v575z" />
<glyph unicode="Z" horiz-adv-x="1333" d="M94 0v231l725 926h-725v277h1133v-232l-723 -923h749v-279h-1159z" />
<glyph unicode="[" horiz-adv-x="890" d="M156 -410v1956h620v-211h-319v-1532h319v-213h-620z" />
<glyph unicode="\" horiz-adv-x="1138" d="M-25 1546h287l901 -1956h-286z" />
<glyph unicode="]" horiz-adv-x="890" d="M115 -197h319v1532h-319v211h620v-1956h-620v213z" />
<glyph unicode="^" horiz-adv-x="1216" d="M174 1151l291 381h287l290 -381h-245l-187 178l-192 -178h-244z" />
<glyph unicode="_" horiz-adv-x="1136" d="M0 -27h1137v-254h-1137v254z" />
<glyph unicode="`" horiz-adv-x="1204" d="M373 1460l202 133l261 -381h-189z" />
<glyph unicode="a" horiz-adv-x="1159" d="M80 266q0 348 635 393v97q0 131 -152 131q-127 0 -350 -109l-107 221q250 125 469 125q438 0 439 -379v-458q0 -86 90 -86v-207q-156 0 -232.5 28.5t-121.5 106.5q-143 -154 -342 -154q-145 0 -236.5 81t-91.5 210zM379 301q0 -49 35 -80t92 -31q127 0 209 93v211 q-336 -21 -336 -193z" />
<glyph unicode="b" horiz-adv-x="1247" d="M129 0v1546h301v-569q133 147 315 147q197 0 311.5 -144t114.5 -417q0 -283 -115.5 -435.5t-305.5 -152.5q-188 0 -336 154l-19 -129h-266zM430 313q99 -108 223 -108h2q106 0 160.5 95t54.5 261q0 334 -215 334q-123 0 -225 -115v-467z" />
<glyph unicode="c" horiz-adv-x="1079" d="M74 557q0 260 156.5 413.5t402.5 153.5q215 0 389 -135l-152 -194q-111 86 -229 86q-115 0 -189.5 -86t-74.5 -238q0 -160 74.5 -250t189.5 -90q121 0 231 90l164 -174q-178 -158 -403 -158q-246 0 -402.5 157t-156.5 425z" />
<glyph unicode="d" horiz-adv-x="1245" d="M76 563q0 272 115.5 416.5t312.5 144.5q182 0 315 -147v569h301v-1546h-266l-18 129q-148 -154 -338.5 -154t-306 153t-115.5 435zM377 561q0 -166 54.5 -261t160.5 -95q131 0 227 108v467q-102 115 -227 115q-215 0 -215 -334z" />
<glyph unicode="e" horiz-adv-x="1196" d="M76 557q0 258 157.5 413.5t393.5 155.5q231 0 360 -137t129 -364q0 -78 -10 -133h-725q25 -279 270 -279q154 0 305 94l125 -190q-205 -143 -453 -143q-1 0 -1 -1q-247 0 -399 156t-152 428zM387 664h444q1 245 -196 245q-94 0 -160.5 -64.5t-87.5 -180.5z" />
<glyph unicode="f" horiz-adv-x="851" d="M33 872v211h174v56q0 426 452 426q121 0 250 -49l-71 -205q-89 26 -157 26h-5q-168 0 -168 -194v-62h276v-209h-276v-872h-301v872h-174z" />
<glyph unicode="g" horiz-adv-x="1218" d="M33 -141q0 143 160 227q-68 61 -68 147q0 113 117 183q-160 113 -160 307q0 178 135 289.5t340 111.5q184 0 313 -94q121 94 310 94v-198q-125 0 -197 -21q45 -84 45 -182q0 -184 -140 -292.5t-331 -108.5q-84 0 -168 22q-43 -18 -43 -61q0 -41 63.5 -58.5t235.5 -23.5 q250 -10 377 -84t127 -226q0 -154 -140.5 -237.5t-420.5 -83.5q-264 0 -409.5 74t-145.5 215zM313 -129q0 -59 62.5 -87t204.5 -28q292 0 292 102q0 56 -55 77.5t-209 27.5q-123 2 -219 29q-76 -45 -76 -121zM369 723q0 -92 52 -147.5t136 -55.5t136 55.5t52 147.5 t-52 148.5t-136 56.5t-136 -56.5t-52 -148.5z" />
<glyph unicode="h" horiz-adv-x="1226" d="M129 0v1546h301v-573q146 151 328 151h2q350 0 350 -397v-727h-301v735q0 166 -143 166q-133 0 -236 -129v-772h-301z" />
<glyph unicode="i" horiz-adv-x="557" d="M129 0v1083h301v-1083h-301zM129 1278v258h301v-258h-301z" />
<glyph unicode="j" horiz-adv-x="581" d="M-152 -389l64 221q61 -20 115 -20q63 0 94 36.5t31 124.5v1110h301v-1093q0 -420 -383 -420q-106 0 -222 41zM152 1276v260h301v-260h-301z" />
<glyph unicode="k" horiz-adv-x="1198" d="M129 0v1546h301v-928l401 482h316l-340 -389l367 -711h-340l-226 483l-178 -202v-281h-301z" />
<glyph unicode="l" horiz-adv-x="561" d="M131 0v1546h301v-1546h-301z" />
<glyph unicode="m" horiz-adv-x="1855" d="M125 0v1100h285l12 -119q154 145 323 145q211 0 291 -161q167 161 359 161h2q168 0 254 -103t86 -290v-733h-299v739q0 160 -133 160q-119 0 -226 -117q4 -49 4 -71v-711h-301v739q0 160 -133 160t-225 -125v-774h-299z" />
<glyph unicode="n" horiz-adv-x="1222" d="M125 0v1100h283l14 -127q144 153 332 153h2q350 0 350 -399v-727h-301v735q0 166 -143 166q-135 0 -238 -129v-772h-299z" />
<glyph unicode="o" d="M76 561q0 252 156.5 407.5t398.5 155.5q238 0 393.5 -155.5t155.5 -407.5q0 -270 -150.5 -428t-398.5 -158q-252 0 -403.5 158t-151.5 428zM379 559q0 -166 66.5 -262t185.5 -96q115 0 180.5 97t65.5 261q0 152 -68 245t-178 93q-113 0 -182.5 -93t-69.5 -245z" />
<glyph unicode="p" horiz-adv-x="1243" d="M127 -410v1510h270l23 -133q136 157 319 157h2q197 0 311.5 -144t114.5 -417q0 -283 -114.5 -435.5t-304.5 -152.5q-183 1 -324 142v-527h-297zM424 313q99 -108 225 -108h2q106 0 161.5 95t55.5 261q0 334 -217 334q-125 0 -227 -115v-467z" />
<glyph unicode="q" horiz-adv-x="1245" d="M76 563q0 272 115.5 416.5t312.5 144.5q184 0 321 -157l23 133h272v-1510h-299v527q-141 -142 -323 -142q-190 0 -306 153t-116 435zM377 561q0 -166 55.5 -261t159.5 -95q129 0 229 108v467q-104 115 -229 115q-215 0 -215 -334z" />
<glyph unicode="r" horiz-adv-x="907" d="M125 0v1100h276l21 -170q114 200 311 200h2q78 0 135 -22l-43 -274q-65 24 -141 24h-6q-152 0 -256 -196v-662h-299z" />
<glyph unicode="s" horiz-adv-x="1042" d="M63 94l115 209q180 -100 340 -100q164 0 164 104q0 49 -61.5 80t-148.5 51.5t-174 51t-148.5 104.5t-61.5 188q0 160 126 251t310 91q201 0 410 -96l-107 -209q-160 78 -299 78q-147 0 -147 -102q0 -41 44 -69t109.5 -41t141.5 -37.5t141.5 -55.5t109.5 -99.5t44 -166.5 q0 -166 -124 -258.5t-325 -92.5q-240 0 -459 119z" />
<glyph unicode="t" horiz-adv-x="894" d="M33 887v213h174v274h301v-274h301v-213h-301v-547q0 -123 100 -123q80 0 150 49l110 -180q-141 -111 -321 -111q-172 0 -256 87.5t-84 271.5v553h-174z" />
<glyph unicode="u" horiz-adv-x="1224" d="M119 373v727h301v-733q0 -166 141 -166q131 0 240 125v774h301v-1100h-279l-18 127q-147 -152 -336 -152q-350 1 -350 398z" />
<glyph unicode="v" horiz-adv-x="1110" d="M29 1100h297l233 -774h4l234 774h284l-366 -1100h-322z" />
<glyph unicode="w" horiz-adv-x="1730" d="M29 1100h293l221 -713h4l198 713h242l201 -713h4l219 713h289l-359 -1100h-272l-203 676h-4l-203 -676h-272z" />
<glyph unicode="x" horiz-adv-x="1120" d="M37 0l348 557l-340 543h313l203 -342l201 342h313l-338 -543l344 -557h-305l-217 354l-217 -354h-305z" />
<glyph unicode="y" horiz-adv-x="1138" d="M18 -389l82 233q93 -34 147 -34h3q57 0 91 24.5t54 85.5l35 92l-399 1088h301l241 -725h5l239 725h291l-410 -1161q-76 -211 -175 -290t-255 -79q-123 0 -250 41z" />
<glyph unicode="z" horiz-adv-x="1069" d="M86 0v197l522 673h-508v230h875v-201l-516 -672h536v-227h-909z" />
<glyph unicode="{" horiz-adv-x="1013" d="M61 432v264h111q84 0 117 33t33 117v348q0 352 428 352h151v-213h-131q-82 0 -114.5 -32.5t-32.5 -110.5v-334q0 -229 -211 -291v-2q211 -70 211 -293v-325q0 -78 32.5 -110t114.5 -32h131v-213h-151q-428 0 -428 353v338q0 82 -33 116.5t-117 34.5h-111z" />
<glyph unicode="|" horiz-adv-x="657" d="M190 -410v1956h277v-1956h-277z" />
<glyph unicode="}" horiz-adv-x="1013" d="M113 -197h131q82 0 114.5 32t32.5 110v325q0 223 211 293v2q-211 61 -211 291v334q0 78 -32.5 110.5t-114.5 32.5h-131v213h151q428 0 428 -352v-348q0 -84 33 -117t117 -33h110v-264h-110q-84 0 -117 -35t-33 -116v-338q0 -352 -428 -353h-151v213z" />
<glyph unicode="~" horiz-adv-x="1179" d="M131 440q0 145 69.5 235.5t196.5 90.5q74 0 141.5 -39t126 -77t107.5 -38q86 0 82 121h193q2 -16 2 -49q0 -147 -69 -236.5t-198 -89.5q-74 0 -141.5 38t-124.5 77t-104 39q-90 0 -84 -123h-195q-2 18 -2 51z" />
<glyph unicode="&#xa1;" horiz-adv-x="567" d="M131 -55l76 712h153l76 -712v-277h-305v277zM131 834v268h307v-268h-307z" />
<glyph unicode="&#xa2;" horiz-adv-x="1284" d="M90 586q0 254 176 424t463 170h29l43 178h155l-49 -199q150 -37 269 -131l-148 -197q-96 74 -192 101l-174 -717q35 -6 71 -6q166 0 299 129l172 -172q-203 -193 -475 -193q-51 0 -100 7l-62 -252h-151l69 284q-186 63 -290.5 218t-104.5 356zM377 586q0 -113 48 -200 t132 -134l164 692q-150 -4 -247 -103t-97 -255z" />
<glyph unicode="&#xa3;" horiz-adv-x="1298" d="M63 186q0 90 66 148.5t164 58.5q86 0 205 -55q-6 94 -64 184h-284v164h172q-57 100 -58 197q0 129 107.5 214t294.5 85q287 0 417 -213l-215 -101q-72 102 -184 103q-63 0 -99 -28t-36 -77q0 -66 76 -184h284v-158h-190q35 -80 35 -157q0 -80 -31 -146q92 -43 176 -43 q72 0 100.5 47t12.5 129h248q39 -174 -38 -276.5t-245 -102.5q-174 0 -354 115q-133 -115 -318 -115q-106 0 -174 59.5t-68 151.5zM209 186.5q0 -36.5 24.5 -59.5t67.5 -23q100 0 162 97q-98 63 -162 63q-41 0 -66.5 -20.5t-25.5 -57z" />
<glyph unicode="&#xa4;" horiz-adv-x="1398" d="M125 104l117 125q-109 148 -109 334q0 184 109 336l-117 123l125 117l110 -121q152 115 340 115q186 0 338 -113l113 119l125 -117l-119 -121q113 -152 113 -338t-111 -336l117 -123l-125 -112l-111 117q-152 -113 -340 -113q-193 0 -340 113l-110 -117zM403 563 q0 -123 87.5 -209t211.5 -86q123 0 210 86t87 209q0 125 -87 212t-210 87q-125 0 -212 -87t-87 -212z" />
<glyph unicode="&#xa5;" horiz-adv-x="1261" d="M35 1155h352l242 -326h2l241 326h353l-443 -571h338v-156h-338v-106h338v-154h-338v-168h-305v168h-340v154h340v106h-340v156h340z" />
<glyph unicode="&#xa6;" horiz-adv-x="657" d="M190 371h277v-781h-277v781zM190 731v815h277v-815h-277z" />
<glyph unicode="&#xa7;" horiz-adv-x="1128" d="M117 455q0 117 116 207q-92 76 -92 202q0 150 120 234t335 84q106 0 215 -38t186 -106l-170 -161q-104 92 -245 92q-160 0 -160 -99q0 -47 60.5 -78.5t147.5 -54t174 -54.5t147.5 -97.5t60.5 -163.5q0 -117 -119 -207q94 -74 94 -203q0 -150 -119.5 -233.5t-335.5 -83.5 q-106 0 -214.5 39t-188.5 104l170 162q109 -92 246 -92q162 0 162 98q0 47 -60.5 79t-147.5 55.5t-174 54t-147.5 96t-60.5 164.5zM371 496q0 -31 15 -55.5t36.5 -40t60.5 -31t70 -24.5t83 -22.5t83 -23.5q37 41 37 82q0 35 -18.5 62.5t-59.5 47t-76 30.5t-99.5 28.5 t-96.5 28.5q-35 -43 -35 -82z" />
<glyph unicode="&#xa8;" horiz-adv-x="1261" d="M279 1260v233h239v-233h-239zM748 1260v233h235v-233h-235z" />
<glyph unicode="&#xa9;" horiz-adv-x="1708" d="M113 581.5q0 307.5 217 525.5t524 218t525 -218t218 -525.5t-218 -524.5t-525 -217t-524 217t-217 524.5zM238 582q0 -256 181 -437.5t437 -181.5q254 0 436.5 182.5t182.5 436.5q0 256 -181.5 438t-437.5 182t-437 -182t-181 -438zM449 580q0 170 117.5 286.5 t303.5 116.5q176 0 312 -111l-123 -147q-96 76 -180 76q-90 0 -150.5 -62.5t-60.5 -158.5q0 -100 58 -160t151 -60q106 0 186 78l131 -133q-135 -129 -325.5 -129t-305 113t-114.5 291z" />
<glyph unicode="&#xaa;" horiz-adv-x="802" d="M61 872q0 238 437 269v61q0 84 -107 84q-94 0 -241 -74l-70 154q162 84 317 84q150 0 222.5 -67.5t72.5 -186.5v-307q0 -57 64 -58v-141q-104 0 -154.5 17.5t-81.5 66.5q-94 -98 -229 -98q-100 0 -165 54t-65 142zM258 897q0 -33 24.5 -53.5t63.5 -20.5q88 0 152 60v139 q-240 -8 -240 -125z" />
<glyph unicode="&#xab;" horiz-adv-x="1337" d="M80 555l409 547l197 -148l-319 -399l319 -410l-197 -145zM633 555l409 547l197 -148l-319 -399l319 -410l-197 -145z" />
<glyph unicode="&#xac;" horiz-adv-x="1341" d="M113 918v237h1116v-618h-311v381h-805z" />
<glyph unicode="&#xad;" horiz-adv-x="788" d="M76 426v252h637v-252h-637z" />
<glyph unicode="&#xae;" horiz-adv-x="1708" d="M113 581.5q0 307.5 217 525.5t524 218t525 -218t218 -525.5t-218 -524.5t-525 -217t-524 217t-217 524.5zM238 582q0 -256 181 -437.5t437 -181.5q254 0 436.5 182.5t182.5 436.5q0 256 -181.5 438t-437.5 182t-437 -182t-181 -438zM537 201v770h389q150 0 225.5 -76 t75.5 -182q0 -156 -137 -219q12 -20 71.5 -145.5t73.5 -147.5h-227l-117 268h-139v-268h-215zM752 616h143q61 0 89 29t28 68q0 41 -28 70.5t-89 29.5h-143v-197z" />
<glyph unicode="&#xaf;" horiz-adv-x="1247" d="M307 1284v184h672v-184h-672z" />
<glyph unicode="&#xb0;" horiz-adv-x="835" d="M66 1118q0 150 103 246t249 96q143 0 246.5 -96t103.5 -246q0 -154 -101.5 -247t-249 -93t-249.5 93.5t-102 246.5zM246 1118q0 -76 51 -124t121 -48q72 0 122 48t50 124t-50.5 124t-121.5 48q-68 0 -120 -49t-52 -123z" />
<glyph unicode="&#xb1;" horiz-adv-x="1259" d="M78 0v186h416v312h-416v247h416v357h274v-357h414v-247h-414v-312h414v-186h-1104z" />
<glyph unicode="&#xb2;" horiz-adv-x="712" d="M57 1653q145 125 314 125q133 0 207.5 -63.5t74.5 -160.5q0 -82 -57 -141t-126 -87t-128 -67.5t-63 -87.5h364v-147h-557l-2 84q-2 88 37 153.5t94 101.5t111.5 63.5t96.5 58.5t40 67q0 33 -28.5 52.5t-80.5 19.5q-98 0 -188 -86z" />
<glyph unicode="&#xb3;" horiz-adv-x="694" d="M51 1077l68 140q100 -57 194 -58q63 0 103.5 26.5t40.5 63.5q0 86 -127 86h-113v138h105q113 0 112 79q0 33 -26.5 54.5t-73.5 21.5q-88 0 -182 -67l-84 120q135 96 278 97q121 0 198 -55.5t77 -143.5q0 -106 -91 -164q115 -53 115 -167.5t-94 -176t-229.5 -62 t-270.5 67.5z" />
<glyph unicode="&#xb4;" horiz-adv-x="1204" d="M371 1212l262 381l201 -133l-275 -248h-188z" />
<glyph unicode="&#xb5;" horiz-adv-x="1224" d="M113 -410v1565h305v-799q6 -152 143 -151.5t244 123.5v827h307v-1155h-287l-12 106q-109 -123 -242 -122q-111 0 -170 53l-18 -447h-270z" />
<glyph unicode="&#xb6;" horiz-adv-x="1531" d="M109 995q0 182 124.5 310.5t378.5 128.5h768v-1434h-264v1229h-182v-1229h-264v557h-54q-250 0 -378.5 133t-128.5 305z" />
<glyph unicode="&#xb7;" horiz-adv-x="501" d="M96 395v314h312v-314h-312z" />
<glyph unicode="&#xb8;" horiz-adv-x="1204" d="M395 -352q231 180 258 381h172q-14 -293 -225 -484z" />
<glyph unicode="&#xb9;" horiz-adv-x="626" d="M70 1647l256 118h137v-741h-187v561l-139 -69z" />
<glyph unicode="&#xba;" horiz-adv-x="872" d="M51 1071q0 168 107.5 273.5t271.5 105.5t270.5 -105.5t106.5 -273.5q0 -182 -103.5 -288.5t-273.5 -106.5q-172 0 -275.5 106.5t-103.5 288.5zM248 1069q0 -111 48 -174.5t134 -63.5q82 0 129 63.5t47 174.5q0 100 -48 162.5t-128 62.5q-82 0 -132 -62.5t-50 -162.5z" />
<glyph unicode="&#xbb;" horiz-adv-x="1337" d="M98 145l320 410l-320 399l197 148l410 -547l-410 -555zM653 145l320 410l-320 399l197 148l410 -547l-410 -555z" />
<glyph unicode="&#xbc;" horiz-adv-x="1624" d="M115 1339l256 119h137v-741h-186v561l-140 -70zM201 0l1214 1434h193l-1213 -1434h-194zM987 274l361 465h186v-465h86v-137h-86v-137h-178v137h-312zM1161 274h195v269z" />
<glyph unicode="&#xbd;" horiz-adv-x="1755" d="M115 1339l256 119h137v-741h-186v561l-140 -70zM199 0l1214 1434h193l-1213 -1434h-194zM1155 629q145 125 313 125q133 0 208 -63.5t75 -160.5q0 -82 -57.5 -141t-126 -87t-128 -67.5t-63.5 -87.5h365v-147h-557l-2 84q-2 88 36.5 153.5t94 101.5t112 63.5t96.5 58.5 t40 67q0 33 -29 52.5t-80 19.5q-98 0 -188 -86z" />
<glyph unicode="&#xbe;" horiz-adv-x="1574" d="M55 770l68 139q100 -57 194 -57q63 0 103.5 26.5t40.5 63.5q0 86 -127 86h-113v137h105q113 0 112 80q0 33 -26.5 54.5t-73.5 21.5q-88 0 -182 -68l-84 121q135 96 278 96q121 0 198 -55t77 -143q0 -106 -90 -164q115 -53 114.5 -168t-94.5 -176.5t-229.5 -61.5 t-270.5 68zM156 0l1214 1434h193l-1213 -1434h-194zM948 274l361 465h186v-465h86v-137h-86v-137h-178v137h-311zM1122 274h195v269z" />
<glyph unicode="&#xbf;" horiz-adv-x="1128" d="M109 27q0 86 31.5 154.5t78.5 109.5t101.5 82t102.5 71.5t81 75.5t35 98l4 39h223q8 -37 8 -82q0 -94 -38 -162.5t-92 -108.5t-108.5 -73.5t-92 -79t-37.5 -104.5q0 -72 57 -116t145 -44q164 0 312 142l178 -166q-213 -219 -496 -219q-223 0 -358 102t-135 281zM500 834 v268h307v-268h-307z" />
<glyph unicode="&#xc0;" horiz-adv-x="1460" d="M35 0l518 1434h352l518 -1434h-331l-91 268h-544l-88 -268h-334zM406 1716l233 137l229 -307h-219zM535 508h387l-193 582h-4z" />
<glyph unicode="&#xc1;" horiz-adv-x="1460" d="M35 0l518 1434h352l518 -1434h-331l-91 268h-544l-88 -268h-334zM535 508h387l-193 582h-4zM592 1546l227 307l236 -137l-246 -170h-217z" />
<glyph unicode="&#xc2;" horiz-adv-x="1460" d="M35 0l518 1434h352l518 -1434h-331l-91 268h-544l-88 -268h-334zM344 1546l240 273h290l240 -273h-203l-180 133h-2l-182 -133h-203zM535 508h387l-193 582h-4z" />
<glyph unicode="&#xc3;" horiz-adv-x="1460" d="M35 0l518 1434h352l518 -1434h-331l-91 268h-544l-88 -268h-334zM369 1548q-14 133 46 210t173 77q74 0 154.5 -53t113.5 -53q76 0 66 88h168q14 -133 -47.5 -211t-174.5 -78q-74 0 -153.5 53t-114.5 53q-76 0 -63 -86h-168zM535 508h387l-193 582h-4z" />
<glyph unicode="&#xc4;" horiz-adv-x="1460" d="M35 0l518 1434h352l518 -1434h-331l-91 268h-544l-88 -268h-334zM371 1565v235h237v-235h-237zM535 508h387l-193 582h-4zM852 1565v235h238v-235h-238z" />
<glyph unicode="&#xc5;" horiz-adv-x="1460" d="M35 0l508 1405q-59 66 -60 156q0 102 72 169.5t174 67.5q104 0 175 -67.5t71 -169.5q0 -92 -60 -158l508 -1403h-331l-91 268h-544l-88 -268h-334zM535 508h387l-193 582h-4zM602 1561q0 -51 34 -87t83 -40h20q49 4 83 39.5t34 87.5q0 55 -37 92t-90 37t-90 -37t-37 -92z " />
<glyph unicode="&#xc6;" horiz-adv-x="2168" d="M25 0l645 1434h1384v-271h-893l86 -311h727v-248h-657l92 -334h655v-270h-913l-70 268h-592l-112 -268h-352zM596 518h422l-160 623z" />
<glyph unicode="&#xc7;" horiz-adv-x="1443" d="M84 725q0 319 210 526t537 207q291 0 521 -182l-168 -213q-168 133 -346 133q-199 0 -320 -129t-121 -342q0 -221 119 -354t322 -133q201 0 354 149l184 -197q-217 -201 -516 -213q-31 -258 -221 -432l-205 103q203 162 250 340q-272 43 -436 244.5t-164 492.5z" />
<glyph unicode="&#xc8;" horiz-adv-x="1298" d="M139 0v1434h1045v-271h-735v-315h655v-240h-655v-338h743v-270h-1053zM342 1716l233 137l230 -307h-219z" />
<glyph unicode="&#xc9;" horiz-adv-x="1298" d="M139 0v1434h1045v-271h-735v-315h655v-240h-655v-338h743v-270h-1053zM528 1546l228 307l235 -137l-246 -170h-217z" />
<glyph unicode="&#xca;" horiz-adv-x="1298" d="M139 0v1434h1045v-271h-735v-315h655v-240h-655v-338h743v-270h-1053zM283 1546l239 273h291l240 -273h-203l-180 133h-2l-183 -133h-202z" />
<glyph unicode="&#xcb;" horiz-adv-x="1298" d="M139 0v1434h1045v-271h-735v-315h655v-240h-655v-338h743v-270h-1053zM309 1565v235h238v-235h-238zM791 1565v235h237v-235h-237z" />
<glyph unicode="&#xcc;" horiz-adv-x="587" d="M-29 1716l234 137l229 -307h-219zM139 0v1434h312v-1434h-312z" />
<glyph unicode="&#xcd;" horiz-adv-x="587" d="M139 0v1434h312v-1434h-312zM158 1546l227 307l236 -137l-246 -170h-217z" />
<glyph unicode="&#xce;" horiz-adv-x="587" d="M-90 1546l240 273h290l240 -273h-203l-180 133h-2l-182 -133h-203zM139 0v1434h312v-1434h-312z" />
<glyph unicode="&#xcf;" horiz-adv-x="587" d="M-63 1565v235h237v-235h-237zM139 0v1434h312v-1434h-312zM418 1565v235h237v-235h-237z" />
<glyph unicode="&#xd0;" horiz-adv-x="1562" d="M29 633v178h192v623h471q381 0 585 -186.5t204 -524.5q0 -348 -199 -535.5t-590 -187.5h-471v633h-192zM530 252h185q221 0 336.5 124t115.5 345q0 213 -118.5 337t-333.5 124h-185v-371h322v-178h-322v-381z" />
<glyph unicode="&#xd1;" horiz-adv-x="1507" d="M139 0v1434h295l639 -945v945h293v-1434h-293l-639 940v-940h-295zM393 1548q-14 133 46.5 210t172.5 77q74 0 155 -53t114 -53q76 0 65 88h168q14 -133 -47 -211t-174 -78q-74 0 -154 53t-114 53q-76 0 -64 -86h-168z" />
<glyph unicode="&#xd2;" horiz-adv-x="1654" d="M84 721q0 324 209 530.5t534 206.5q328 0 536 -207t208 -530q0 -326 -209 -536t-534.5 -210t-534.5 210t-209 536zM399 721q0 -217 120 -350t308 -133q190 0 310 133t120 350q0 215 -119.5 346t-310 131t-309.5 -132t-119 -345zM506 1716l233 137l230 -307h-219z" />
<glyph unicode="&#xd3;" horiz-adv-x="1654" d="M84 721q0 324 209 530.5t534 206.5q328 0 536 -207t208 -530q0 -326 -209 -536t-534.5 -210t-534.5 210t-209 536zM399 721q0 -217 120 -350t308 -133q190 0 310 133t120 350q0 215 -119.5 346t-310 131t-309.5 -132t-119 -345zM690 1546l228 307l235 -137l-246 -170 h-217z" />
<glyph unicode="&#xd4;" horiz-adv-x="1654" d="M84 721q0 324 209 530.5t534 206.5q328 0 536 -207t208 -530q0 -326 -209 -536t-534.5 -210t-534.5 210t-209 536zM399 721q0 -217 120 -350t308 -133q190 0 310 133t120 350q0 215 -119.5 346t-310 131t-309.5 -132t-119 -345zM442 1546l240 273h291l239 -273h-202 l-181 133h-2l-182 -133h-203z" />
<glyph unicode="&#xd5;" horiz-adv-x="1654" d="M84 721q0 324 209 530.5t534 206.5q328 0 536 -207t208 -530q0 -326 -209 -536t-534.5 -210t-534.5 210t-209 536zM399 721q0 -217 120 -350t308 -133q190 0 310 133t120 350q0 215 -119.5 346t-310 131t-309.5 -132t-119 -345zM467 1548q-14 133 46 210t173 77 q74 0 155 -53t113 -53q76 0 66 88h168q14 -133 -47.5 -211t-173.5 -78q-74 0 -154 53t-115 53q-76 0 -63 -86h-168z" />
<glyph unicode="&#xd6;" horiz-adv-x="1654" d="M84 721q0 324 209 530.5t534 206.5q328 0 536 -207t208 -530q0 -326 -209 -536t-534.5 -210t-534.5 210t-209 536zM399 721q0 -217 120 -350t308 -133q190 0 310 133t120 350q0 215 -119.5 346t-310 131t-309.5 -132t-119 -345zM469 1565v235h238v-235h-238zM950 1565 v235h238v-235h-238z" />
<glyph unicode="&#xd7;" horiz-adv-x="1214" d="M119 227l311 326l-311 321l178 177l311 -326l312 326l178 -177l-312 -321l312 -326l-178 -174l-312 326l-311 -326z" />
<glyph unicode="&#xd8;" horiz-adv-x="1654" d="M84 721q0 324 209 530.5t534 206.5q229 0 406 -108l125 157l127 -102l-125 -152q211 -207 211 -532.5t-209 -535.5t-535 -210q-225 0 -405 107l-127 -156l-125 99l127 155q-213 207 -213 541zM399 721q0 -190 90 -315l578 722q-104 70 -240 70q-190 0 -309 -132 t-119 -345zM588 309q102 -72 239 -71q190 0 310 133t120 350q0 182 -92 311z" />
<glyph unicode="&#xd9;" horiz-adv-x="1476" d="M133 545v889h313v-889q0 -143 80 -224t213 -81q131 0 212 80.5t81 224.5v889h311v-889q0 -279 -164.5 -424.5t-439 -145.5t-440.5 145.5t-166 424.5zM414 1716l233 137l230 -307h-220z" />
<glyph unicode="&#xda;" horiz-adv-x="1476" d="M133 545v889h313v-889q0 -143 80 -224t213 -81q131 0 212 80.5t81 224.5v889h311v-889q0 -279 -164.5 -424.5t-439 -145.5t-440.5 145.5t-166 424.5zM600 1546l227 307l236 -137l-246 -170h-217z" />
<glyph unicode="&#xdb;" horiz-adv-x="1476" d="M133 545v889h313v-889q0 -143 80 -224t213 -81q131 0 212 80.5t81 224.5v889h311v-889q0 -279 -164.5 -424.5t-439 -145.5t-440.5 145.5t-166 424.5zM354 1546l240 273h291l239 -273h-202l-181 133h-2l-182 -133h-203z" />
<glyph unicode="&#xdc;" horiz-adv-x="1476" d="M133 545v889h313v-889q0 -143 80 -224t213 -81q131 0 212 80.5t81 224.5v889h311v-889q0 -279 -164.5 -424.5t-439 -145.5t-440.5 145.5t-166 424.5zM381 1565v235h237v-235h-237zM862 1565v235h238v-235h-238z" />
<glyph unicode="&#xdd;" horiz-adv-x="1439" d="M27 1434h358l334 -553h4l336 553h354l-536 -859v-575h-314v575zM584 1546l227 307l236 -137l-246 -170h-217z" />
<glyph unicode="&#xde;" horiz-adv-x="1378" d="M139 0v1434h312v-234h237q299 0 446.5 -129t147.5 -344q0 -221 -145.5 -352t-446.5 -131h-239v-244h-312zM451 487h237q137 0 211 61.5t74 178.5q0 111 -76 170t-209 59h-237v-469z" />
<glyph unicode="&#xdf;" horiz-adv-x="1363" d="M123 0v1090q0 225 149.5 350t384.5 125q233 0 384 -121t151 -316q0 -227 -231 -327v-2q147 -35 236 -132.5t89 -246.5q0 -205 -139 -322.5t-342 -117.5q-133 0 -248 36l45 232q88 -27 154 -27q100 0 164.5 56.5t64.5 160.5q0 111 -73.5 167.5t-198.5 56.5h-84v239h41 q100 0 161.5 58.5t61.5 154.5q0 102 -63.5 163.5t-174.5 61.5q-109 0 -170 -63.5t-61 -181.5v-1094h-301z" />
<glyph unicode="&#xe0;" horiz-adv-x="1159" d="M80 266q0 348 635 393v97q0 131 -152 131q-127 0 -350 -109l-107 221q250 125 469 125q438 0 439 -379v-458q0 -86 90 -86v-207q-156 0 -232.5 28.5t-121.5 106.5q-143 -154 -342 -154q-145 0 -236.5 81t-91.5 210zM268 1460l203 133l260 -381h-188zM379 301 q0 -49 35 -80t92 -31q127 0 209 93v211q-336 -21 -336 -193z" />
<glyph unicode="&#xe1;" horiz-adv-x="1159" d="M80 266q0 348 635 393v97q0 131 -152 131q-127 0 -350 -109l-107 221q250 125 469 125q438 0 439 -379v-458q0 -86 90 -86v-207q-156 0 -232.5 28.5t-121.5 106.5q-143 -154 -342 -154q-145 0 -236.5 81t-91.5 210zM379 301q0 -49 35 -80t92 -31q127 0 209 93v211 q-336 -21 -336 -193zM440 1212l262 381l201 -133l-274 -248h-189z" />
<glyph unicode="&#xe2;" horiz-adv-x="1159" d="M80 266q0 348 635 393v97q0 131 -152 131q-127 0 -350 -109l-107 221q250 125 469 125q438 0 439 -379v-458q0 -86 90 -86v-207q-156 0 -232.5 28.5t-121.5 106.5q-143 -154 -342 -154q-145 0 -236.5 81t-91.5 210zM182 1212l240 328h330l239 -328h-221l-180 185h-6 l-183 -185h-219zM379 301q0 -49 35 -80t92 -31q127 0 209 93v211q-336 -21 -336 -193z" />
<glyph unicode="&#xe3;" horiz-adv-x="1159" d="M80 266q0 348 635 393v97q0 131 -152 131q-127 0 -350 -109l-107 221q250 125 469 125q438 0 439 -379v-458q0 -86 90 -86v-207q-156 0 -232.5 28.5t-121.5 106.5q-143 -154 -342 -154q-145 0 -236.5 81t-91.5 210zM229 1237q-14 137 47.5 215t174.5 78q72 0 150.5 -54.5 t111.5 -54.5q76 0 63 95h168q14 -137 -46 -215t-173 -78q-70 0 -149.5 53t-112.5 53q-74 0 -66 -92h-168zM379 301q0 -49 35 -80t92 -31q127 0 209 93v211q-336 -21 -336 -193z" />
<glyph unicode="&#xe4;" horiz-adv-x="1159" d="M80 266q0 348 635 393v97q0 131 -152 131q-127 0 -350 -109l-107 221q250 125 469 125q438 0 439 -379v-458q0 -86 90 -86v-207q-156 0 -232.5 28.5t-121.5 106.5q-143 -154 -342 -154q-145 0 -236.5 81t-91.5 210zM233 1260v233h240v-233h-240zM379 301q0 -49 35 -80 t92 -31q127 0 209 93v211q-336 -21 -336 -193zM702 1260v233h236v-233h-236z" />
<glyph unicode="&#xe5;" horiz-adv-x="1159" d="M80 266q0 348 635 393v97q0 131 -152 131q-127 0 -350 -109l-107 221q250 125 469 125q438 0 439 -379v-458q0 -86 90 -86v-207q-156 0 -232.5 28.5t-121.5 106.5q-143 -154 -342 -154q-145 0 -236.5 81t-91.5 210zM340 1434q0 102 71.5 169.5t174 67.5t174 -67.5 t71.5 -169.5q0 -100 -71.5 -167t-174 -67t-174 66.5t-71.5 167.5zM379 301q0 -49 35 -80t92 -31q127 0 209 93v211q-336 -21 -336 -193zM459 1434q0 -53 36.5 -90t90 -37t90.5 36.5t37 90.5q0 55 -37 92t-90.5 37t-90 -37t-36.5 -92z" />
<glyph unicode="&#xe6;" horiz-adv-x="1830" d="M80 264q-2 178 160.5 273.5t476.5 115.5v105q0 129 -148 129q-129 0 -356 -109l-107 221q268 127 467 127q250 0 338 -149q139 150 359 149q229 0 357 -138t128 -363q0 -57 -14 -133h-721q18 -279 270 -279q150 0 301 94l127 -190q-195 -143 -444 -144q-288 0 -440 195 q-166 -195 -416 -195q-154 0 -245 80t-93 211zM381 301q0 -49 36 -81t91 -32q150 0 240 136q-25 78 -31 168q-336 -17 -336 -191zM1024 664h444q0 246 -196 245q-94 0 -161 -63t-87 -182z" />
<glyph unicode="&#xe7;" horiz-adv-x="1079" d="M74 557q0 260 156.5 413.5t402.5 153.5q215 0 389 -135l-152 -194q-111 86 -229 86q-115 0 -189.5 -86t-74.5 -238q0 -160 74.5 -250t189.5 -90q121 0 231 90l164 -174q-168 -147 -366 -156q-31 -258 -221 -432l-205 103q205 160 250 342q-190 41 -305 190.5t-115 376.5z " />
<glyph unicode="&#xe8;" horiz-adv-x="1196" d="M76 557q0 258 157.5 413.5t393.5 155.5q231 0 360 -137t129 -364q0 -78 -10 -133h-725q25 -279 270 -279q154 0 305 94l125 -190q-205 -143 -452.5 -143.5t-400 155.5t-152.5 428zM305 1460l203 133l260 -381h-188zM387 664h444q1 245 -196 245q-94 0 -160.5 -64.5 t-87.5 -180.5z" />
<glyph unicode="&#xe9;" horiz-adv-x="1196" d="M76 557q0 258 157.5 413.5t393.5 155.5q231 0 360 -137t129 -364q0 -78 -10 -133h-725q25 -279 270 -279q154 0 305 94l125 -190q-205 -143 -452.5 -143.5t-400 155.5t-152.5 428zM387 664h444q1 245 -196 245q-94 0 -160.5 -64.5t-87.5 -180.5zM477 1212l262 381 l201 -133l-274 -248h-189z" />
<glyph unicode="&#xea;" horiz-adv-x="1196" d="M76 557q0 258 157.5 413.5t393.5 155.5q231 0 360 -137t129 -364q0 -78 -10 -133h-725q25 -279 270 -279q154 0 305 94l125 -190q-205 -143 -452.5 -143.5t-400 155.5t-152.5 428zM225 1212l240 328h330l239 -328h-221l-180 185h-6l-183 -185h-219zM387 664h444 q1 245 -196 245q-94 0 -160.5 -64.5t-87.5 -180.5z" />
<glyph unicode="&#xeb;" horiz-adv-x="1196" d="M76 557q0 258 157.5 413.5t393.5 155.5q231 0 360 -137t129 -364q0 -78 -10 -133h-725q25 -279 270 -279q154 0 305 94l125 -190q-205 -143 -452.5 -143.5t-400 155.5t-152.5 428zM276 1260v233h240v-233h-240zM387 664h444q1 245 -196 245q-94 0 -160.5 -64.5 t-87.5 -180.5zM745 1260v233h236v-233h-236z" />
<glyph unicode="&#xec;" horiz-adv-x="557" d="M-41 1460l203 133l260 -381h-189zM129 0v1083h301v-1083h-301z" />
<glyph unicode="&#xed;" horiz-adv-x="557" d="M129 0v1083h301v-1083h-301zM131 1212l262 381l201 -133l-275 -248h-188z" />
<glyph unicode="&#xee;" horiz-adv-x="557" d="M-127 1212l240 328h329l240 -328h-221l-180 185h-7l-182 -185h-219zM129 0v1083h301v-1083h-301z" />
<glyph unicode="&#xef;" horiz-adv-x="557" d="M-74 1260v233h240v-233h-240zM129 0v1083h301v-1083h-301zM395 1260v233h236v-233h-236z" />
<glyph unicode="&#xf0;" d="M86 483q0 209 129 340t326 131q147 0 268 -82q-63 150 -201 316l-272 -113l-72 152l228 88q-70 72 -252 231h356q66 -57 139 -131l199 86l70 -155l-150 -62q313 -381 313 -747q0 -272 -146.5 -417t-391.5 -145q-254 0 -398.5 142.5t-144.5 365.5zM387 483 q0 -127 65.5 -207.5t176 -80.5t177 86.5t66.5 242.5q0 76 -8 135q-119 94 -254 95q-96 0 -159.5 -69t-63.5 -202z" />
<glyph unicode="&#xf1;" horiz-adv-x="1222" d="M125 0v1100h283l14 -127q145 154 334 153q350 0 350 -399v-727h-301v735q0 166 -143 166q-135 0 -238 -129v-772h-299zM254 1237q-14 137 47 215t174 78q72 0 151 -54.5t111 -54.5q76 0 64 95h168q14 -137 -46.5 -215t-172.5 -78q-70 0 -150 53t-113 53q-74 0 -65 -92 h-168z" />
<glyph unicode="&#xf2;" d="M76 561q0 252 156.5 407.5t398.5 155.5q238 0 393.5 -155.5t155.5 -407.5q0 -270 -150.5 -428t-398.5 -158q-252 0 -403.5 158t-151.5 428zM307 1460l203 133l260 -381h-188zM379 559q0 -166 66.5 -262t185.5 -96q115 0 180.5 97t65.5 261q0 152 -68 245t-178 93 q-113 0 -182.5 -93t-69.5 -245z" />
<glyph unicode="&#xf3;" d="M76 561q0 252 156.5 407.5t398.5 155.5q238 0 393.5 -155.5t155.5 -407.5q0 -270 -150.5 -428t-398.5 -158q-252 0 -403.5 158t-151.5 428zM379 559q0 -166 66.5 -262t185.5 -96q115 0 180.5 97t65.5 261q0 152 -68 245t-178 93q-113 0 -182.5 -93t-69.5 -245zM479 1212 l262 381l201 -133l-274 -248h-189z" />
<glyph unicode="&#xf4;" d="M76 561q0 252 156.5 407.5t398.5 155.5q238 0 393.5 -155.5t155.5 -407.5q0 -270 -150.5 -428t-398.5 -158q-252 0 -403.5 158t-151.5 428zM223 1212l240 328h330l239 -328h-221l-180 185h-6l-183 -185h-219zM379 559q0 -166 66.5 -262t185.5 -96q115 0 180.5 97 t65.5 261q0 152 -68 245t-178 93q-113 0 -182.5 -93t-69.5 -245z" />
<glyph unicode="&#xf5;" d="M76 561q0 252 156.5 407.5t398.5 155.5q238 0 393.5 -155.5t155.5 -407.5q0 -270 -150.5 -428t-398.5 -158q-252 0 -403.5 158t-151.5 428zM268 1237q-14 137 47.5 215t173.5 78q72 0 151 -54.5t112 -54.5q76 0 63 95h168q14 -137 -46 -215t-173 -78q-72 0 -149.5 53 t-112.5 53q-74 0 -66 -92h-168zM379 559q0 -166 66.5 -262t185.5 -96q115 0 180.5 97t65.5 261q0 152 -68 245t-178 93q-113 0 -182.5 -93t-69.5 -245z" />
<glyph unicode="&#xf6;" d="M76 561q0 252 156.5 407.5t398.5 155.5q238 0 393.5 -155.5t155.5 -407.5q0 -270 -150.5 -428t-398.5 -158q-252 0 -403.5 158t-151.5 428zM274 1260v233h240v-233h-240zM379 559q0 -166 66.5 -262t185.5 -96q115 0 180.5 97t65.5 261q0 152 -68 245t-178 93 q-113 0 -182.5 -93t-69.5 -245zM743 1260v233h236v-233h-236z" />
<glyph unicode="&#xf7;" horiz-adv-x="1259" d="M78 428v248h1104v-248h-1104zM502 29v229h256v-229h-256zM502 846v229h256v-229h-256z" />
<glyph unicode="&#xf8;" d="M76 -10l133 164q-133 155 -133 407t156.5 407.5t398.5 155.5q154 0 282 -73l113 145l127 -100l-115 -142q141 -158 142 -393q0 -270 -150.5 -428t-398.5 -158q-174 0 -301 78l-123 -159zM379 559q0 -100 24 -178l365 467q-61 49 -137 49q-113 0 -182.5 -93t-69.5 -245z M477 258q61 -57 154 -57q115 0 180.5 97t65.5 261q0 90 -31 172z" />
<glyph unicode="&#xf9;" horiz-adv-x="1224" d="M119 373v727h301v-733q0 -166 141 -166q131 0 240 125v774h301v-1100h-279l-18 127q-147 -152 -336 -152q-350 1 -350 398zM266 1460l203 133l260 -381h-188z" />
<glyph unicode="&#xfa;" horiz-adv-x="1224" d="M119 373v727h301v-733q0 -166 141 -166q131 0 240 125v774h301v-1100h-279l-18 127q-147 -152 -336 -152q-350 1 -350 398zM475 1212l262 381l201 -133l-274 -248h-189z" />
<glyph unicode="&#xfb;" horiz-adv-x="1224" d="M119 373v727h301v-733q0 -166 141 -166q131 0 240 125v774h301v-1100h-279l-18 127q-147 -152 -336 -152q-350 1 -350 398zM207 1212l239 328h330l240 -328h-221l-181 185h-6l-182 -185h-219z" />
<glyph unicode="&#xfc;" horiz-adv-x="1224" d="M119 373v727h301v-733q0 -166 141 -166q131 0 240 125v774h301v-1100h-279l-18 127q-147 -152 -336 -152q-350 1 -350 398zM258 1260v233h240v-233h-240zM727 1260v233h236v-233h-236z" />
<glyph unicode="&#xfd;" horiz-adv-x="1138" d="M18 -389l82 233q96 -35 150 -34q57 0 91 24.5t54 85.5l35 92l-399 1088h301l241 -725h5l239 725h291l-410 -1161q-76 -211 -175 -290t-255 -79q-123 0 -250 41zM428 1212l262 381l201 -133l-275 -248h-188z" />
<glyph unicode="&#xfe;" horiz-adv-x="1249" d="M131 -410v1956h299v-577q133 156 318 155q195 0 310.5 -145t115.5 -416q0 -283 -116 -435.5t-304 -152.5q-187 1 -324 142v-527h-299zM430 313q100 -109 227 -108q104 0 160.5 95t56.5 261q0 334 -217 334q-125 0 -227 -115v-467z" />
<glyph unicode="&#xff;" horiz-adv-x="1138" d="M18 -389l82 233q96 -35 150 -34q57 0 91 24.5t54 85.5l35 92l-399 1088h301l241 -725h5l239 725h291l-410 -1161q-76 -211 -175 -290t-255 -79q-123 0 -250 41zM219 1260v233h240v-233h-240zM688 1260v233h236v-233h-236z" />
<glyph unicode="&#x152;" horiz-adv-x="2406" d="M86 729q0 305 204 517t517 212q276 0 442 -192v168h1043v-271h-733v-311h653v-248h-653v-334h743v-270h-1053v164q-160 -188 -442 -189q-322 0 -521.5 213t-199.5 541zM399 729q0 -217 115 -354t309.5 -137t310 138t115.5 353q0 199 -118.5 333t-307 134t-306.5 -134 t-118 -333z" />
<glyph unicode="&#x153;" horiz-adv-x="1992" d="M76 561q0 252 157.5 408.5t399.5 156.5q266 0 391 -202q139 203 401 202q233 0 362.5 -137t129.5 -364q0 -68 -12 -133h-721q16 -279 266 -279q156 0 303 94l129 -190q-203 -143 -444 -144q-283 0 -412 199q-131 -199 -393 -199q-250 0 -403.5 160t-153.5 428zM381 561 q0 -168 65.5 -264t184.5 -96q115 0 180.5 97t65.5 263q0 152 -67 245t-179.5 93t-181 -93t-68.5 -245zM1186 664h444q0 246 -198 245q-92 0 -157.5 -63t-88.5 -182z" />
<glyph unicode="&#x178;" horiz-adv-x="1439" d="M27 1434h358l334 -553h4l336 553h354l-536 -859v-575h-314v575zM362 1565v235h238v-235h-238zM844 1565v235h237v-235h-237z" />
<glyph unicode="&#x2c6;" horiz-adv-x="1280" d="M256 1212l240 328h329l240 -328h-221l-180 185h-7l-182 -185h-219z" />
<glyph unicode="&#x2dc;" horiz-adv-x="1261" d="M283 1237q-14 137 47 215t174 78q72 0 150.5 -54.5t111.5 -54.5q76 0 63 95h168q14 -137 -46 -215t-173 -78q-70 0 -149.5 53t-112.5 53q-74 0 -65 -92h-168z" />
<glyph unicode="&#x2000;" horiz-adv-x="926" />
<glyph unicode="&#x2001;" horiz-adv-x="1853" />
<glyph unicode="&#x2002;" horiz-adv-x="926" />
<glyph unicode="&#x2003;" horiz-adv-x="1853" />
<glyph unicode="&#x2004;" horiz-adv-x="617" />
<glyph unicode="&#x2005;" horiz-adv-x="463" />
<glyph unicode="&#x2006;" horiz-adv-x="308" />
<glyph unicode="&#x2007;" horiz-adv-x="308" />
<glyph unicode="&#x2008;" horiz-adv-x="231" />
<glyph unicode="&#x2009;" horiz-adv-x="370" />
<glyph unicode="&#x200a;" horiz-adv-x="102" />
<glyph unicode="&#x2010;" horiz-adv-x="788" d="M76 426v252h637v-252h-637z" />
<glyph unicode="&#x2011;" horiz-adv-x="788" d="M76 426v252h637v-252h-637z" />
<glyph unicode="&#x2012;" horiz-adv-x="788" d="M76 426v252h637v-252h-637z" />
<glyph unicode="&#x2013;" horiz-adv-x="1280" d="M78 426v252h1124v-252h-1124z" />
<glyph unicode="&#x2014;" horiz-adv-x="1851" d="M86 426v252h1677v-252h-1677z" />
<glyph unicode="&#x2018;" horiz-adv-x="503" d="M96 825v240q0 158 63.5 247t200.5 134l62 -115q-150 -55 -150 -192h136v-314h-312z" />
<glyph unicode="&#x2019;" horiz-adv-x="503" d="M82 928q150 55 149 192h-135v314h312v-240q0 -158 -63.5 -247t-201.5 -134z" />
<glyph unicode="&#x201a;" horiz-adv-x="503" d="M82 -193q150 55 149 193h-135v313h312v-239q0 -158 -63.5 -247t-201.5 -134z" />
<glyph unicode="&#x201c;" horiz-adv-x="980" d="M96 825v240q0 158 63.5 247t200.5 134l62 -115q-150 -55 -150 -192h136v-314h-312zM573 825v240q0 158 63.5 247t201.5 134l61 -115q-150 -55 -149 -192h135v-314h-312z" />
<glyph unicode="&#x201d;" horiz-adv-x="980" d="M82 928q150 55 149 192h-135v314h312v-240q0 -158 -63.5 -247t-201.5 -134zM559 928q150 55 150 192h-136v314h312v-240q0 -158 -63.5 -247t-200.5 -134z" />
<glyph unicode="&#x201e;" horiz-adv-x="980" d="M82 -193q150 55 149 193h-135v313h312v-239q0 -158 -63.5 -247t-201.5 -134zM559 -193q150 55 150 193h-136v313h312v-239q0 -158 -63.5 -247t-200.5 -134z" />
<glyph unicode="&#x2022;" horiz-adv-x="1155" d="M260 553q0 131 93 224t224.5 93t225.5 -93t94 -224t-94 -225.5t-225.5 -94.5t-224.5 94.5t-93 225.5z" />
<glyph unicode="&#x2026;" horiz-adv-x="1605" d="M96 0v313h312v-313h-312zM647 0v313h311v-313h-311zM1200 0v313h311v-313h-311z" />
<glyph unicode="&#x202f;" horiz-adv-x="370" />
<glyph unicode="&#x2039;" horiz-adv-x="784" d="M80 555l409 547l197 -148l-319 -399l319 -410l-197 -145z" />
<glyph unicode="&#x203a;" horiz-adv-x="784" d="M98 145l320 410l-320 399l197 148l410 -547l-410 -555z" />
<glyph unicode="&#x205f;" horiz-adv-x="463" />
<glyph unicode="&#x20ac;" horiz-adv-x="1316" d="M51 354v160h162q-2 20 -2 63.5t2 65.5h-162v160h197q61 174 209.5 276.5t349.5 102.5q264 0 434 -170l-168 -178q-106 106 -252 106q-193 0 -276 -152h301v-145h-344q-4 -45 -4 -65q0 -43 4 -64h344v-143h-297q90 -154 282 -154q154 0 246 102l180 -163 q-170 -180 -442 -181q-201 0 -351.5 103.5t-213.5 275.5h-199z" />
<glyph unicode="&#x2122;" horiz-adv-x="1814" d="M70 1266v168h712v-168h-254v-590h-202v590h-256zM897 676v758h197l211 -273l206 273h199v-758h-201v454l-200 -258l-211 263v-459h-201z" />
<glyph unicode="&#xe000;" horiz-adv-x="1095" d="M0 0v1096h1096v-1096h-1096z" />
</font>
</defs>
</svg>
